
<svg xmlns="http://www.w3.org/2000/svg" viewBox="0 0 730 140">
  <path fill-rule="evenodd" style="fill: var(--primary-text-color)" d="M462 24.6v29.1h37.6v11H462v29.1h41.7V105h-53.5V13.3h53.5v11.3m7.7 61.5c0-14.2 12.8-21.9 27.5-21.9 8.4 0 14.6 2.4 17 3.8v-1.8c0-9.5-7.6-15.2-16.4-15.2-6.5 0-12.8 3.2-15 9.1l-10.8-4.6c2.2-5.8 9.7-15.2 25.5-15.2 15.4 0 27.9 9.2 27.9 26.9V105h-11.3v-8.7h-.5a23.9 23.9 0 0 1-20.6 10.8c-12.7-.1-23.3-8-23.3-21zm44.5-8.1s-5-4.1-15-4.1c-12.4 0-17.3 6.7-17.3 12.4 0 6.7 6.9 10 13.1 10 9.4 0 19.2-8.1 19.2-18.3zm34.6-25.5h.5c2.8-7.6 11.3-11.8 19.8-11.8 2.4 0 3.1.1 4.2.3v11.5c-2.4-.3-2.4-.3-4.7-.3-11 0-19.3 6.8-19.3 18.4V105h-11.8V42.3h11.3v10.2zm44.3 33.4V53h-11V42.3h11V23.1h11.8v19.2H662V53h-15.4v32c0 7 2.9 10.2 8.4 10.2a13 13 0 0 0 5.4-1l4.1 10.1a22.1 22.1 0 0 1-9.5 1.7c-13.2 0-20.2-7.3-20.2-20.1zm48.9-43.6l-.5 8.7h.5a23.7 23.7 0 0 1 19.8-10.8c16 0 23.9 10.9 23.9 26.4V105h-11.8V68.4c0-13.1-6.5-17.4-15.5-17.4-10.2 0-16.5 9.7-16.5 19.3V105h-11.8V13.3h11.8v29h.1zM2.7 54.6C2.7 25.6 27 2.1 56 2.1c16 0 27.4 6.3 36 14.5L81.8 26.7a37.6 37.6 0 0 0-63.4 27.8A37.6 37.6 0 0 0 56 92.6c13.7 0 21.5-5.5 26.5-10.5 4.1-4.1 6.8-10 7.8-18H56V49.8h48.3c.5 2.6.8 5.6.8 9a47 47 0 0 1-12.4 33.5A48.3 48.3 0 0 1 56 107C27 107 2.7 83.5 2.7 54.6zM144 39.5a33.3 33.3 0 0 0-33.9 33.8c0 19.5 15.2 33.8 33.9 33.8s33.9-14.3 33.9-33.8A33.3 33.3 0 0 0 144 39.5zm0 54.2c-10.2 0-19.1-8.4-19.1-20.5 0-12.2 8.8-20.5 19.1-20.5 10.2 0 19.1 8.3 19.1 20.5 0 12.1-8.9 20.5-19.1 20.5zm74-54.2a33.3 33.3 0 0 0-33.9 33.8c0 19.5 15.2 33.8 33.9 33.8s33.9-14.3 33.9-33.8A33.3 33.3 0 0 0 218 39.5zm0 54.2c-10.2 0-19.1-8.4-19.1-20.5 0-12.2 8.8-20.5 19.1-20.5s19.1 8.3 19.1 20.5c0 12.1-8.9 20.5-19.1 20.5zm90.8-52.2V47h-.5c-3.3-4-9.7-7.6-17.8-7.6a33.6 33.6 0 0 0-32.4 33.9 33.5 33.5 0 0 0 32.4 33.7 23 23 0 0 0 17.8-7.7h.5v4.9c0 12.9-6.9 19.8-18 19.8-9.1 0-14.7-6.5-17-12l-12.9 5.4c3.7 9 13.6 20 30 20 17.4 0 32.1-10.2 32.1-35.2V41.5h-14.2zm-17 52.2c-10.2 0-18.8-8.6-18.8-20.4 0-11.9 8.6-20.6 18.8-20.6 10.1 0 18 8.7 18 20.6.1 11.9-7.9 20.4-18 20.4zM348 105h-14.8V5.7H348m40.7 88c-7.6 0-12.9-3.5-16.4-10.2l45.2-18.7L416 61c-2.8-7.6-11.4-21.5-28.9-21.5-17.4 0-31.9 13.7-31.9 33.8a33 33 0 0 0 33.5 33.8c15.5 0 24.4-9.5 28.2-15l-11.5-7.7a19.4 19.4 0 0 1-16.7 9.3zm-1.1-41.2c5.9 0 10.9 2.9 12.5 7.2l-30.2 12.5a18.5 18.5 0 0 1 17.7-19.7z"/>

</svg>